<svg width="33" height="33" viewBox="0 0 33 33" fill="none" xmlns="http://www.w3.org/2000/svg">
<path fill-rule="evenodd" clip-rule="evenodd" d="M16.4 32.9C20.7495 32.9 24.921 31.1721 27.9966 28.0965C31.0721 25.0209 32.8 20.8495 32.8 16.5C32.8 12.1504 31.0721 7.97902 27.9966 4.90342C24.921 1.82783 20.7495 0.0999756 16.4 0.0999756C12.0504 0.0999756 7.87905 1.82783 4.80345 4.90342C1.72785 7.97902 0 12.1504 0 16.5C0 20.8495 1.72785 25.0209 4.80345 28.0965C7.87905 31.1721 12.0504 32.9 16.4 32.9ZM23.9993 13.8493C24.3728 13.4627 24.5794 12.9449 24.5747 12.4074C24.5701 11.8699 24.3545 11.3557 23.9744 10.9756C23.5943 10.5955 23.0801 10.3799 22.5426 10.3752C22.0051 10.3706 21.4873 10.5772 21.1007 10.9506L14.35 17.7013L11.6993 15.0506C11.3127 14.6772 10.7949 14.4706 10.2574 14.4752C9.71987 14.4799 9.20571 14.6955 8.82562 15.0756C8.44554 15.4557 8.22994 15.9699 8.22527 16.5074C8.2206 17.0449 8.42723 17.5627 8.80065 17.9493L12.9007 22.0493C13.2851 22.4336 13.8064 22.6495 14.35 22.6495C14.8936 22.6495 15.4149 22.4336 15.7993 22.0493L23.9993 13.8493Z" fill="#22C59A"/>
</svg>
