<svg width="26" height="27" viewBox="0 0 26 27" fill="none" xmlns="http://www.w3.org/2000/svg">
<path fill-rule="evenodd" clip-rule="evenodd" d="M6.88084 9.98086C7.12462 9.73715 7.45522 9.60024 7.79994 9.60024C8.14465 9.60024 8.47525 9.73715 8.71904 9.98086L12.9999 14.2618L17.2808 9.98086C17.4008 9.8567 17.5442 9.75766 17.7028 9.68953C17.8614 9.6214 18.032 9.58553 18.2046 9.58403C18.3772 9.58253 18.5484 9.61543 18.7082 9.68079C18.8679 9.74616 19.0131 9.84268 19.1352 9.96475C19.2572 10.0868 19.3537 10.232 19.4191 10.3917C19.4845 10.5515 19.5174 10.7227 19.5159 10.8953C19.5144 11.0679 19.4785 11.2385 19.4104 11.3971C19.3422 11.5557 19.2432 11.6991 19.119 11.8191L13.919 17.0191C13.6753 17.2628 13.3447 17.3997 12.9999 17.3997C12.6552 17.3997 12.3246 17.2628 12.0808 17.0191L6.88084 11.8191C6.63712 11.5753 6.50021 11.2447 6.50021 10.9C6.50021 10.5552 6.63712 10.2246 6.88084 9.98086Z" fill="#1E1E1E" fill-opacity="0.4"/>
</svg>
