<svg width="24" height="25" viewBox="0 0 24 25" fill="none" xmlns="http://www.w3.org/2000/svg">
<path d="M12 8.5C9.79 8.5 8 10.29 8 12.5C8 14.71 9.79 16.5 12 16.5C14.21 16.5 16 14.71 16 12.5C16 10.29 14.21 8.5 12 8.5ZM20.94 11.5C20.48 7.33 17.17 4.02 13 3.56V1.5H11V3.56C6.83 4.02 3.52 7.33 3.06 11.5H1V13.5H3.06C3.52 17.67 6.83 20.98 11 21.44V23.5H13V21.44C17.17 20.98 20.48 17.67 20.94 13.5H23V11.5H20.94ZM12 19.5C8.13 19.5 5 16.37 5 12.5C5 8.63 8.13 5.5 12 5.5C15.87 5.5 19 8.63 19 12.5C19 16.37 15.87 19.5 12 19.5Z" fill="#1E1E1E" fill-opacity="0.4"/>
</svg>
